<svg width="400" height="300" viewBox="0 0 400 300" fill="none" xmlns="http://www.w3.org/2000/svg">
  <!-- Dark background -->
  <rect width="400" height="300" fill="#09090B" />
  
  <!-- Grid pattern -->
  <rect width="400" height="300" fill="url(#grid)" opacity="0.2" />
  
  <!-- Gradient header -->
  <rect x="20" y="20" width="360" height="60" rx="4" fill="#18181B" />
  <rect x="340" y="35" width="30" height="30" rx="15" fill="#27272A" />
  
  <!-- Navigation items -->
  <rect x="100" y="40" width="30" height="6" rx="3" fill="#52525B" />
  <rect x="150" y="40" width="30" height="6" rx="3" fill="#52525B" />
  <rect x="200" y="40" width="30" height="6" rx="3" fill="#52525B" />
  <rect x="250" y="40" width="30" height="6" rx="3" fill="#52525B" />
  
  <!-- Hero section -->
  <rect x="100" y="120" width="200" height="20" rx="2" fill="url(#hero-gradient)" />
  <rect x="120" y="150" width="160" height="8" rx="4" fill="#52525B" />
  <rect x="145" y="170" width="110" height="8" rx="4" fill="#52525B" />
  
  <!-- Buttons -->
  <rect x="140" y="190" width="50" height="20" rx="4" fill="#27272A" />
  <rect x="210" y="190" width="50" height="20" rx="4" stroke="#3F3F46" fill="none" />
  
  <!-- Grid pattern definition -->
  <defs>
    <pattern id="grid" width="40" height="40" patternUnits="userSpaceOnUse">
      <path d="M 40 0 L 0 0 0 40" fill="none" stroke="#333" stroke-width="0.5" />
    </pattern>
    <linearGradient id="hero-gradient" x1="100" y1="130" x2="300" y2="130" gradientUnits="userSpaceOnUse">
      <stop stop-color="#A855F7" />
      <stop offset="1" stop-color="#EC4899" />
    </linearGradient>
  </defs>
</svg>
